<svg xmlns="http://www.w3.org/2000/svg" height="24px" viewBox="0 -960 960 960" width="24px" fill="#FFFFFF"><path d="M480-480ZM215.45-147.27q-28.35 0-48.26-19.92-19.92-19.91-19.92-48.26v-529.1q0-28.35 19.92-48.26 19.91-19.92 48.35-19.92h299.19v55.96H215.54q-5.39 0-8.85 3.46t-3.46 8.85v528.92q0 5.39 3.46 8.85t8.85 3.46h528.92q5.39 0 8.85-3.46t3.46-8.85v-299.19h55.96v299.19q0 28.44-19.92 48.35-19.91 19.92-48.26 19.92h-529.1Zm46.09-147.46h437.11l-135.57-180.5-118.39 153.35-83.38-104.85-99.77 132Zm416.04-303.65v-79.2h-79.2v-55.96h79.2v-79.19h55.96v79.19h79.19v55.96h-79.19v79.2h-55.96Z"/></svg>