<svg xmlns="http://www.w3.org/2000/svg" height="24px" viewBox="0 -960 960 960" width="24px" fill="#FFFFFF"><path d="M480-290.19q96.69-82.46 146.33-162.1 49.63-79.63 49.63-146.57 0-86.56-54.88-141.83-54.89-55.27-141.08-55.27-86.19 0-141.08 55.27-54.88 55.27-54.88 141.83 0 66.94 49.63 146.67 49.64 79.73 146.33 162Zm0 71.15q-125.81-98.92-188.86-195.61-63.06-96.7-63.06-184.16 0-111.15 70.59-182.13 70.6-70.98 181.33-70.98 110.73 0 181.33 70.98 70.59 70.98 70.59 182.13 0 87.46-63.06 183.96-63.05 96.5-188.86 195.81Zm0-308.65q29.92 0 51.11-21.2 21.2-21.19 21.2-51.11 0-29.92-21.2-51.11-21.19-21.2-51.11-21.2-29.92 0-51.11 21.2-21.2 21.19-21.2 51.11 0 29.92 21.2 51.11 21.19 21.2 51.11 21.2ZM228.08-108.08v-55.96h503.84v55.96H228.08ZM480-600Z"/></svg>